<svg version="1" xmlns="http://www.w3.org/2000/svg" width="301.333" height="301.333" viewBox="0 0 226.000000 226.000000"><path d="M165.3 2c-7.8 4.7-17.7 14.9-24.8 25.5-5.3 8-10.3 17.8-16.7 32.9-2.7 6.5-3.8 8.1-6 8.7-2 .5-3.1.2-4.6-1.5-1.7-1.9-5.7-10.6-5-11.1.2-.1 1.9-1.1 3.8-2.3 6.8-4.1 9.7-13.1 6.6-20.5-1.8-4.4-7.8-9.5-12.1-10.3-10.7-2-20.5 6-20.5 16.6 0 7.6 5.9 15.2 12.9 16.6 2.7.6 2.9.8 2.4 4.8-1.2 10.4-2.5 15-5.5 17.9-2.6 2.6-3.4 2.9-7.7 2.5-9.7-1-24.7-12.8-45.9-36.6-5.4-6-8.2-8.5-8.2-7.3 0 3.2 9.1 15.9 22.9 32C70.3 85.5 71 86.9 65.3 87c-1.2 0-5.5 1.2-9.5 2.6-26.5 9.6-30.4 25.3-7.8 31.8 7.3 2.1 13.8 2.7 30.2 2.6 12.4 0 13.7.2 13.6 1.8-.1 6 3 62.9 3.7 67.2.2 1.4.7 5 1 8 .9 7.9 3.3 16.9 5.8 21.2 1.7 3.1 2.3 3.5 3.5 2.5 1.2-.9 1.3-3.1.8-11.7-.4-5.8-.8-11.6-1-13-.2-1.4-.7-5.7-1.1-9.5-.4-3.9-.8-7.7-1-8.5-2.1-11.2-2.5-43.7-.6-49.3 1.6-4.7 4.9-7 8.7-6.1 6.6 1.7 22.1 20.9 38.7 48.3 5 8.1 8.3 12.7 8.5 11.7.6-2.8-3.2-11.3-17.5-39.5-7.4-14.5-13.2-26.5-13.1-26.6.2-.2 2.5-.6 5.2-.9 2.7-.4 5.2-.9 5.5-1 .3-.2 3.1-.7 6.1-1 7.6-.9 21.5-3.3 33.5-5.7 16-3.3 17.8-5.8 7.2-9.7-5.2-1.9-24.1-6.6-30.7-7.6-1.9-.3-5.8-1-8.7-1.5-2.9-.6-7.1-1.3-9.5-1.6-2.4-.4-7.1-1.2-10.5-1.8l-6.2-1.2 3.8-11c4.4-12.8 11.9-28.5 18.4-38.3 2.5-3.7 9.5-12.7 15.5-19.8C169.3 5.5 172 2 172 .8c0-1.4-3.4-.8-6.7 1.2zm-36.1 89.6c13.1 2.8 14.4 3.1 24.3 5.9 10.8 3.1 16.2 5.4 16.9 7.1.7 1.9-11.3 5.5-23.4 7-2.5.3-5.2.7-6 .9-.8.2-4 .7-7 1-3 .4-5.8.9-6.1 1.1-1.5.9-4-2.6-6.4-8.9-2.5-6.7-3.1-11.1-1.9-14.1.8-2 .6-2 9.6 0zm-48 6.6c5.6 6.9 8.7 12.1 9.3 15.7l.6 3.4-11.8-.6c-16.9-.9-26.6-2.9-33.1-6.9-7.3-4.5-1.5-8.9 16.8-13.2 14.2-3.3 14.2-3.3 18.2 1.6z"/></svg>